<svg width="96" height="96" xmlns="http://www.w3.org/2000/svg" xmlns:xlink="http://www.w3.org/1999/xlink" overflow="hidden"><g><path d="M0 0 96 0 96 96 0 96Z" fill="#0D0D0D" fill-rule="evenodd" fill-opacity="0"/><path d="M27 43.055C27 40.8155 28.8155 39 31.055 39L40.945 39C43.1845 39 45 40.8155 45 43.055L45 52.945C45 55.1845 43.1845 57 40.945 57L31.055 57C28.8155 57 27 55.1845 27 52.945Z" stroke="#FFFFFF" stroke-width="4" stroke-miterlimit="8" fill="none" fill-rule="evenodd"/><path d="M3 43.8298C3 41.7146 4.71464 40 6.82976 40L17.1702 40C19.2854 40 21 41.7146 21 43.8298L21 53.1702C21 55.2854 19.2854 57 17.1702 57L6.82976 57C4.71464 57 3 55.2854 3 53.1702Z" stroke="#FFFFFF" stroke-width="4" stroke-miterlimit="8" fill="none" fill-rule="evenodd"/><path d="M75 42.8298C75 40.7146 76.7146 39 78.8298 39L88.1702 39C90.2854 39 92 40.7146 92 42.8298L92 53.1702C92 55.2854 90.2854 57 88.1702 57L78.8298 57C76.7146 57 75 55.2854 75 53.1702Z" stroke="#FFFFFF" stroke-width="4" stroke-miterlimit="8" fill="none" fill-rule="evenodd"/><path d="M51 43.055C51 40.8155 52.8155 39 55.055 39L64.945 39C67.1845 39 69 40.8155 69 43.055L69 52.945C69 55.1845 67.1845 57 64.945 57L55.055 57C52.8155 57 51 55.1845 51 52.945Z" stroke="#FFFFFF" stroke-width="4" stroke-miterlimit="8" fill="#FFFFFF" fill-rule="evenodd"/></g></svg>